HIERARCHY
ROOT Hips
{
	OFFSET	-17.8289	87.9116	-4.0226
	CHANNELS 6 Xposition Yposition Zposition Zrotation Yrotation Xrotation
	JOINT Chest
	{
		OFFSET	0.0000	16.3830	0.0000
		CHANNELS 3 Zrotation Yrotation Xrotation
		JOINT LeftCollar
		{
			OFFSET	3.8100	32.7660	-3.8100
			CHANNELS 3 Zrotation Yrotation Xrotation
			JOINT LeftUpArm
			{
				OFFSET	14.5367	0.0000	3.8951
				CHANNELS 3 Zrotation Yrotation Xrotation
				JOINT LeftLowArm
				{
					OFFSET	30.2895	0.0000	0.0000
					CHANNELS 3 Zrotation Yrotation Xrotation
					JOINT LeftHand
					{
						OFFSET	27.2415	0.0000	0.0000
						CHANNELS 3 Zrotation Yrotation Xrotation
						End Site
						{
							OFFSET	20.3835	0.0000	0.0000
						}
					}
				}
			}
		}
		JOINT Neck
		{
			OFFSET	0.0000	32.7660	0.0000
			CHANNELS 3 Zrotation Yrotation Xrotation
			JOINT Head
			{
				OFFSET	0.0000	19.6215	0.0000
				CHANNELS 3 Zrotation Yrotation Xrotation
				End Site
				{
					OFFSET	0.0000	0.0000	10.1600
				}
			}
		}
		JOINT RightCollar
		{
			OFFSET	-3.8100	32.7660	-3.8100
			CHANNELS 3 Zrotation Yrotation Xrotation
			JOINT RightUpArm
			{
				OFFSET	-14.5367	0.0000	3.8951
				CHANNELS 3 Zrotation Yrotation Xrotation
				JOINT RightLowArm
				{
					OFFSET	-30.2895	0.0000	0.0000
					CHANNELS 3 Zrotation Yrotation Xrotation
					JOINT RightHand
					{
						OFFSET	-27.2415	0.0000	0.0000
						CHANNELS 3 Zrotation Yrotation Xrotation
						End Site
						{
							OFFSET	-20.3835	0.0000	0.0000
						}
					}
				}
			}
		}
	}
	JOINT LeftUpLeg
	{
		OFFSET	9.3345	0.0000	0.0000
		CHANNELS 3 Zrotation Yrotation Xrotation
		JOINT LeftLowLeg
		{
			OFFSET	0.0000	-45.5295	0.0000
			CHANNELS 3 Zrotation Yrotation Xrotation
			JOINT LeftFoot
			{
				OFFSET	0.0000	-44.1960	0.0000
				CHANNELS 3 Zrotation Yrotation Xrotation
				End Site
				{
					OFFSET	0.0000	0.0000	26.4795
				}
			}
		}
	}
	JOINT RightUpLeg
	{
		OFFSET	-9.3345	0.0000	0.0000
		CHANNELS 3 Zrotation Yrotation Xrotation
		JOINT RightLowLeg
		{
			OFFSET	0.0000	-45.5295	0.0000
			CHANNELS 3 Zrotation Yrotation Xrotation
			JOINT RightFoot
			{
				OFFSET	0.0000	-44.1960	0.0000
				CHANNELS 3 Zrotation Yrotation Xrotation
				End Site
				{
					OFFSET	0.0000	0.0000	26.4795
				}
			}
		}
	}
}
MOTION
Frames: 15
Frame Time: 0.0166666666667
-5.9740	88.0247	113.4868	-2.1669	-48.4655	-0.5623	7.8245	-8.6432	0.2421	-9.9472	-5.9414	1.3234	-38.4429	-24.4108	22.7832	66.7641	-58.0665	-47.3049	-23.3653	-28.5923	-66.8328	-0.5093	17.8785	7.0548	-0.5093	17.8785	7.0548	6.2199	0.0104	0.0928	26.9651	-3.8682	-17.7661	-48.6482	47.9818	-54.3216	-0.0002	19.8558	-66.4379	27.0425	8.3607	-14.5263	-4.2365	19.0549	29.7068	-3.0967	4.3859	-5.4803	-6.8224	7.4765	-7.3702	4.3464	12.3329	14.3310	6.3879	29.7979	-2.6952	
-5.7304	87.9433	114.5680	-2.0123	-49.5648	-0.6912	7.8060	-7.8651	0.4143	-9.7282	-6.8451	1.4313	-38.4622	-24.9133	23.4566	65.7701	-57.3985	-45.9880	-23.0818	-29.3992	-67.4527	-0.2747	18.4832	7.3575	-0.2747	18.4832	7.3575	6.3861	-0.6502	-0.0470	26.7646	-3.5009	-17.6025	-50.9832	48.1418	-55.9704	-1.6581	19.9500	-68.5711	27.4001	7.0166	-14.9535	-4.2214	21.1642	27.7712	-3.0069	2.6778	-6.6278	-7.5716	7.8407	-7.5857	4.1186	12.0578	14.2496	6.9524	30.8100	-2.6591	
-5.0006	87.8114	115.3642	-1.9141	-50.6090	-0.8225	8.9853	-9.4130	0.8693	-10.8066	-4.8875	0.6141	-37.8599	-25.0093	24.0954	66.4835	-57.4896	-47.1383	-22.9516	-29.4501	-67.7730	-1.0147	19.8433	7.3915	-1.0147	19.8433	7.3915	5.2766	0.9997	-0.4101	26.6102	-3.0541	-17.3190	-54.1725	47.8617	-58.2529	-3.2548	19.4821	-71.0529	27.5053	6.5461	-14.9703	-4.2896	22.2312	25.7980	-3.1211	0.5686	-7.9347	-8.1609	7.9869	-7.9856	3.9343	12.1405	14.4198	7.3105	31.4072	-2.5055	
-4.2176	87.6472	115.9573	-1.9183	-51.4285	-0.9470	9.2575	-9.1591	1.2094	-10.7903	-5.8944	0.5851	-37.1965	-24.3287	23.8013	66.8726	-57.3211	-47.7396	-22.7255	-29.6044	-68.2054	-1.1319	20.2196	7.5294	-1.1319	20.2196	7.5294	5.1485	0.7442	-0.6769	26.1435	-3.2437	-17.7234	-56.4370	48.4471	-60.1072	-3.7888	18.7415	-72.3767	27.5350	5.9273	-14.9088	-4.6301	22.8390	22.8829	-3.2453	-0.9081	-8.1623	-8.7090	8.2885	-7.9719	3.7865	12.0753	14.2544	7.7031	31.8603	-2.3473	
-3.6385	87.5086	116.6924	-2.0502	-52.2994	-1.1090	9.6440	-9.2726	1.7494	-10.9777	-5.8315	0.3018	-36.5526	-24.3601	24.1690	66.4550	-56.4396	-47.7206	-23.5421	-31.2142	-68.2391	-1.3267	20.7930	7.6664	-1.3267	20.7930	7.6664	4.7241	1.0112	-0.9836	26.0426	-3.0904	-17.6198	-58.8292	48.4391	-61.8002	-3.8029	17.8693	-73.3774	27.5207	5.5433	-14.5030	-5.1307	22.7813	19.7612	-3.1356	-0.7658	-6.9643	-9.1080	8.9412	-7.7813	3.7051	12.2958	14.6180	7.7783	31.8500	-2.9369	
-3.3937	87.3143	117.7754	-2.2826	-53.1409	-1.2604	9.7350	-9.2351	2.2637	-10.9012	-5.8893	0.1576	-36.2381	-24.4844	24.1572	66.0338	-57.3932	-45.8009	-21.7770	-31.6627	-70.6127	-1.3835	21.2315	7.8394	-1.3835	21.2315	7.8394	4.4858	1.0139	-1.2289	26.4759	-2.8628	-17.3625	-61.8126	48.4279	-63.5810	-3.6187	17.0255	-74.2328	27.5261	5.2993	-13.9116	-5.3339	22.6600	17.8038	-3.6957	-4.1714	-10.7853	-9.6091	9.6022	-7.5834	3.8687	12.5599	15.0950	7.7199	31.6699	-3.5973	
-3.1031	87.0680	118.9582	-2.4877	-53.8345	-1.3208	9.7151	-9.2644	2.6043	-10.7599	-5.9229	0.0327	-35.7531	-25.2213	24.4050	64.8807	-56.9852	-44.9359	-21.5556	-31.7886	-71.1098	-1.4157	21.6402	8.0406	-1.4157	21.6402	8.0406	4.2847	1.0929	-1.4002	26.7478	-2.6830	-17.1862	-63.5905	48.5078	-64.5466	-3.4402	16.9283	-74.9369	27.2757	4.7165	-13.3698	-5.7340	21.7935	14.3903	-3.6864	-4.6504	-10.8690	-9.9207	9.9921	-7.6263	3.8813	12.9090	15.8406	7.7187	31.5778	-4.1918	
-2.8624	86.8124	119.9459	-2.6917	-54.5583	-1.2898	9.6636	-9.1602	2.8813	-10.5717	-5.9157	-0.1053	-35.4269	-25.5278	24.4363	64.9590	-57.3791	-44.8304	-21.3770	-31.9180	-71.7219	-1.4453	21.9972	8.1838	-1.4453	21.9972	8.1838	4.1194	1.1993	-1.5536	26.5710	-2.5084	-17.0227	-64.4184	48.5245	-64.9501	-3.1670	16.5746	-75.5395	26.9068	4.6767	-12.8474	-5.8439	21.5399	12.8266	-3.5436	-7.0662	-12.9132	-10.4553	10.4235	-7.9180	3.9228	13.1204	16.9209	7.7375	31.6041	-4.9925	
-2.4746	86.4413	121.2140	-2.9701	-55.2894	-1.1400	9.6139	-9.1050	3.1668	-10.3032	-5.7695	-0.2996	-35.1538	-25.8915	24.5007	65.0083	-57.4820	-44.6958	-21.9922	-31.9891	-71.4124	-1.4980	22.4077	8.3084	-1.4980	22.4077	8.3084	3.8916	1.2600	-1.8361	26.4629	-2.2233	-16.6384	-64.8426	48.5800	-65.0889	-3.0490	16.9089	-76.0302	26.3557	4.9201	-12.3960	-6.0783	19.7813	9.7826	-3.8689	-7.2828	-11.6489	-10.8216	11.2136	-8.2876	3.9277	12.9563	17.9659	7.4377	31.5318	-5.9391	
-2.2470	86.0998	122.2462	-3.3879	-56.0535	-0.8928	9.7506	-8.6135	3.4366	-10.1305	-5.9841	-0.3918	-34.7233	-26.8465	24.8853	63.7714	-56.6019	-43.8854	-22.1084	-32.6209	-71.5634	-1.5642	22.6084	8.4586	-1.5642	22.6084	8.4586	3.6782	1.0938	-2.0771	26.1977	-2.1224	-16.2270	-65.2574	48.5780	-65.3061	-3.0103	17.3060	-76.5306	26.2636	5.4505	-11.9983	-6.2687	19.1692	8.7388	-4.4750	-8.7686	-11.8766	-11.0511	12.2994	-8.8633	3.9278	12.5770	19.1860	7.2554	31.3763	-6.6782	
-1.9732	85.7312	123.0489	-3.9750	-56.8328	-0.5922	9.6871	-8.6889	3.9789	-9.7429	-5.7079	-0.7138	-34.3299	-27.3227	24.9911	64.8476	-56.9874	-44.5441	-21.5467	-31.7638	-72.8429	-1.5887	23.0912	8.4685	-1.5887	23.0912	8.4685	3.8128	1.7103	-2.3189	25.7564	-2.2139	-15.8317	-65.5765	48.7951	-65.4927	-3.0101	17.2837	-76.9286	26.3287	5.9800	-11.5232	-7.0221	17.5340	7.3199	-4.8374	-9.0387	-11.5619	-10.9511	13.2860	-9.1379	3.3102	12.3907	20.6883	7.1472	31.4625	-7.9067	
-1.9007	85.2454	124.3022	-4.5518	-57.3883	-0.3628	9.6611	-8.6868	4.4828	-9.4503	-5.5713	-0.8669	-34.0638	-27.4653	24.9196	64.7959	-56.8448	-44.6005	-21.5918	-33.2056	-72.7737	-1.5909	23.3994	8.4888	-1.5909	23.3994	8.4888	3.3642	1.2997	-2.8127	26.1778	-1.6949	-14.9763	-65.9915	48.9957	-65.6112	-2.8251	17.2438	-77.1088	25.8639	5.9870	-11.9429	-6.6110	16.9590	8.0353	-5.4681	-9.3783	-9.0384	-11.3978	14.0265	-9.9768	3.4667	12.0284	22.4827	7.0999	31.5642	-8.7791	
-1.2102	84.6251	125.2576	-5.1654	-57.8438	0.0120	9.6305	-8.7520	4.9230	-9.1371	-5.5305	-0.9371	-33.4217	-28.2859	25.0030	66.5352	-57.0914	-46.3176	-21.3306	-32.1918	-73.7354	-1.5797	23.6811	8.4428	-1.5797	23.6811	8.4428	3.3016	1.3624	-3.0530	25.9725	-1.5949	-14.5446	-65.8028	49.1625	-65.6487	-2.4878	17.4203	-77.0210	25.7572	6.1552	-13.2684	-6.5040	16.6850	10.3520	-5.7960	-9.5483	-9.3079	-11.7042	14.4952	-10.4151	3.5024	11.8677	23.7138	7.1194	31.7241	-9.4764	
-0.8365	84.1013	126.2930	-5.8806	-58.2534	0.7097	9.6753	-8.7432	5.2143	-8.8500	-5.4357	-1.0701	-32.8865	-29.2733	25.2017	65.8235	-56.3482	-46.0038	-21.2595	-32.8065	-73.8427	-1.5654	23.8861	8.3097	-1.5654	23.8861	8.3097	3.2518	1.3928	-3.2374	25.5795	-1.5465	-14.2260	-65.2031	49.4254	-65.3909	-2.2061	17.7981	-76.9404	26.2848	6.5935	-14.6289	-7.3962	17.3003	14.2904	-5.3966	-11.6470	-9.6419	-11.9347	14.6485	-10.9685	3.3549	11.8807	25.0459	7.0602	32.0457	-10.4193	
-0.5810	83.5109	127.5067	-6.6554	-58.6181	1.4528	9.6855	-8.7224	5.5640	-8.4954	-5.2452	-1.3189	-32.5562	-30.1705	25.4449	66.4472	-56.1571	-46.6268	-21.1749	-33.2273	-74.1788	-1.5188	24.0355	8.0919	-1.5188	24.0355	8.0919	3.2473	1.4576	-3.3323	25.3209	-1.5949	-14.2459	-64.3030	50.0852	-64.4371	-2.1184	18.3048	-77.1312	25.1669	9.2708	-16.4012	-6.7693	15.2399	17.9826	-7.6847	-12.9100	-4.1199	-11.8086	14.8795	-11.2896	2.9150	11.8459	26.2379	6.6752	32.1685	-11.4545	
